<svg width="8" height="6" viewBox="0 0 8 6" fill="none" xmlns="http://www.w3.org/2000/svg">
<path d="M7.98411 2.90934C7.67046 2.09802 7.12595 1.39639 6.41788 0.891169C5.70981 0.385947 4.86922 0.0992764 4 0.0665894C3.13078 0.0992764 2.29019 0.385947 1.58212 0.891169C0.874049 1.39639 0.329539 2.09802 0.015887 2.90934C-0.00529567 2.96793 -0.00529567 3.03208 0.015887 3.09068C0.329539 3.90199 0.874049 4.60362 1.58212 5.10884C2.29019 5.61407 3.13078 5.90074 4 5.93342C4.86922 5.90074 5.70981 5.61407 6.41788 5.10884C7.12595 4.60362 7.67046 3.90199 7.98411 3.09068C8.0053 3.03208 8.0053 2.96793 7.98411 2.90934ZM4 4.73339C3.65717 4.73339 3.32204 4.63173 3.03698 4.44126C2.75193 4.25079 2.52976 3.98008 2.39856 3.66334C2.26737 3.34661 2.23304 2.99808 2.29992 2.66184C2.36681 2.3256 2.5319 2.01674 2.77431 1.77432C3.01673 1.5319 3.32559 1.36681 3.66183 1.29993C3.99808 1.23305 4.3466 1.26737 4.66334 1.39857C4.98007 1.52977 5.25079 1.75194 5.44125 2.03699C5.63172 2.32204 5.73338 2.65718 5.73338 3.00001C5.73268 3.45951 5.54983 3.89999 5.22491 4.22491C4.89999 4.54983 4.45951 4.73268 4 4.73339Z" fill="white"/>
</svg>
